<?xml version="1.0" encoding="UTF-8"?>
<!DOCTYPE svg PUBLIC "-//W3C//DTD SVG 1.1//EN" "http://www.w3.org/Graphics/SVG/1.1/DTD/svg11.dtd">
<!-- Creator: CorelDRAW -->
<svg xmlns="http://www.w3.org/2000/svg" xml:space="preserve" width="98.8376mm" height="120.92mm" version="1.1" style="shape-rendering:geometricPrecision; text-rendering:geometricPrecision; image-rendering:optimizeQuality; fill-rule:evenodd; clip-rule:evenodd"
viewBox="0 0 9869.52 12074.61"
 xmlns:xlink="http://www.w3.org/1999/xlink"
 xmlns:xodm="http://www.corel.com/coreldraw/odm/2003">
 <defs>
  <style type="text/css">
   <![CDATA[
    .fil1 {fill:#030303}
    .fil7 {fill:#F3ABB7}
    .fil2 {fill:#F41A3D}
    .fil4 {fill:#F788F7}
    .fil5 {fill:#F7D417}
    .fil3 {fill:#FB025F}
    .fil0 {fill:#FCFCFC}
    .fil6 {fill:#FED9E7}
   ]]>
  </style>
 </defs>
 <g id="Layer_x0020_1">
  <metadata id="CorelCorpID_0Corel-Layer"/>
  <g id="_2647472032016">
   <path class="fil0" d="M5384.83 5326.69c-169.2,387.62 -1072.49,229.85 -856.22,-253.28 178.19,-398.08 1058.51,-210.13 856.22,253.28zm969.47 -583.7c-62.88,-317.76 481.49,-419.47 742.31,-214.34 204.9,161.16 96.37,254.95 81.56,280.66 -205.76,-51.25 -127.38,-215.88 -387.86,-223.17 -276.59,-7.74 -265.78,178.55 -436.01,156.85zm-3786.9 -18.89c-63.53,-498.19 877.07,-469.29 865.15,-40.7 -216.41,42.08 -153.81,-164.63 -445.7,-161.35 -333.82,3.74 -160.27,209.02 -419.45,202.05zm-1016.91 -2753.81c563.16,-104.91 84.83,255.17 -133.61,765.68 -131.27,306.81 -310.98,857.01 -257.03,1248.9 118.35,32.16 205.04,38.24 321.8,58.23 179.66,30.75 208.14,25.97 199.77,194.05l-483.1 27.14c-19.89,208.96 27,420.84 131.49,567.71 107,13.38 123.72,-0.4 214.11,2.81 63.48,2.26 132.57,-2.05 169.22,42.4 68.36,131.57 -169.94,150.11 -279.32,198.06 19.96,186.74 159.9,337.91 273.55,456.1 246.47,-8.98 340.51,-156.03 492.67,-27.47 -29,186.22 -95.82,101.18 -233.74,245.38 153.05,247.86 894.07,571.2 1286.2,682.8 984.16,280.13 2587.2,292.06 3572.23,20.06 481.3,-132.91 1064.68,-397.96 1278.75,-738.08 -92,-154.04 -140.76,-35.68 -173.81,-243.27 125.42,-108.84 175.91,-29.04 389.42,-31.14 70.75,-142.96 185.33,-293.82 203.58,-500.33 -134.52,-88.29 -217.37,-31.98 -238.53,-203.7 83.79,-51.98 197.62,-46.65 323.59,-61.81 59.13,-177.26 74.63,-355.84 58.89,-548.94 -203.5,-11.04 -369.58,74.99 -517.49,-14.08 -31.27,-250.86 303.25,-166.59 503.05,-263.14 44.51,-233.25 -43.24,-454.53 -104.07,-662.28 -246.61,112.24 -447.09,302.28 -831.4,123.35 -204.55,-95.24 -419.24,-323.68 -483.3,-573.27 -526.88,34.6 -617.37,-42.9 -900.77,-331 -497.61,128.63 -916.45,277.15 -1284.53,-124.26 -398.47,-434.55 -56.69,-1105.87 -28.17,-1349.04 -371.31,-7.36 -949.2,-3.19 -1299.08,60.52 -581.63,105.9 -574.46,-92.57 -1060.74,-271.44 -415.72,-152.92 -796.59,-321.99 -1029.66,82.45 -175.18,303.97 -256.62,842.34 -79.95,1167.61z"/>
   <path class="fil1" d="M7203.68 11801.17c95.76,-221.52 959.01,-426.89 986.83,-1402.6 5.48,-192.1 -66.36,-376.9 65.75,-440.74 362.7,-175.3 679.42,1925.22 -1052.57,1843.34zm816.41 -1227.45c-98.13,460.59 -394.75,759.6 -724.52,960.96 -669.39,408.75 -718.49,-37.57 -618.34,-682.32 77.88,-501.34 337.5,-808.75 688.83,-1006.45 295.76,-166.43 309.14,-88.1 550.45,59.72 193.02,118.26 148.8,455.88 103.59,668.08zm-5799.64 -809.94c-79.86,-789.33 431.79,-1513.49 1121.12,-1556.07 721.41,-44.57 1265.47,682.53 1296.3,1379.58 85.86,1941.84 -2223.32,2094.75 -2417.42,176.5zm5979.42 62.41c-227.69,-15.05 -391.99,-111.51 -468.84,-285.52 225.09,9.18 426.12,129.06 468.84,285.52zm-1709.21 1575.75c-598.98,-624.09 -295.87,-1645.46 488.85,-1909.65 163.26,-54.97 444.18,-106.22 595.5,-10.23 -33.5,329.7 -299.89,17.7 -794.25,694.6 -305.02,417.64 -205.74,706.67 -290.1,1225.28zm-25.41 228.23c-330.45,154.37 -1226.68,312.03 -1595.1,123.8 -205.16,-104.81 -331.55,-296.28 -363.52,-585.06 -45.55,-411.53 88.63,-415.35 220.81,-720.09 168.28,-387.93 -86.46,-557.5 962.75,-941.96 216.91,-79.48 1346.54,-461.37 1499.29,-271.31 -90.7,160.01 11.41,1.28 -351.9,152.32 -750.51,312 -1048.06,1264.35 -584.97,1969.32 82.42,125.48 153.38,150.82 212.63,272.98zm-1435.92 -2744.79l1447.2 -83.51 283.34 -28.44 301.52 -15.65 28.57 178.46c-242.78,39.76 -463.34,66.66 -689.98,115.11 -216.06,46.19 -434.58,122.1 -659.94,170.17l-260.06 85.59 -607.67 297.62c-34.34,-243.06 -66.4,-360.5 -121.74,-580.68l-41.12 -137.83 319.89 -0.85zm-594.81 -419.76c449.74,-38.62 948.47,12.75 1412.45,-23.21 230.1,-17.82 435.08,-24.99 661.32,-52.59 207.06,-25.26 465.81,-97.47 398.91,186.17 -792.95,49.5 -1454.37,109.07 -2265.66,109.43 -99.26,-18.32 -160.97,-120.53 -207.02,-219.8zm-1410.81 -429.26l-154.27 35.26c25.65,-100.25 -1.66,-41.11 45.4,-114.76 117.41,-111.56 173.04,-263.36 279.94,-386.3l92.36 -270.14 84.97 -457.42 36.36 -80.55c126.55,15.78 183.09,-15.9 207.47,91.79 60.88,119.4 63.92,251.31 136.03,382.55 76.76,139.69 160.05,206.41 225.25,305.68l46.85 45.9c247.23,97.08 343.39,210.64 687.03,214.82 307.47,3.74 496.29,-63.13 710.16,-180.71l201.07 -151.66c39.9,-65.81 98.31,-130.66 144.63,-210.76 45.5,-78.7 59.62,-133.32 107.35,-209.19l21.29 -124.21 124.69 -20.63 315.85 -41.69c32.12,762.75 264.32,878.53 367.66,1279.56l-174.25 63.82c-60.66,11.93 -98.82,13.18 -161.08,16.67l-1019.23 44.23 -300.8 7.75c-211.45,9.37 -409.82,1.36 -620.46,-6.23 -283.65,-10.22 -213.05,-12.41 -417.82,-127.34 -342.79,-192.4 -585.88,-177.16 -986.45,-106.43zm5156.55 -1001.6c450.13,-55.17 264.44,354.72 409.9,578.93 328.89,506.98 -128.74,1046.29 -814.05,1007.74 -395.65,-22.26 -542.51,-108.51 -676.9,-328.69 -188.06,-308.12 -595.24,-962.5 -499.68,-1465.06 227.51,-104.76 608.71,-0.86 834.52,75 734.33,246.71 336.17,182.33 746.21,132.07zm-3466.29 567.75c-451.73,-19.92 -841.5,-334.8 -870.15,-753.65l1824.36 70.4c-37.95,393.99 -492.94,703.59 -954.2,683.25zm-3262.4 -1746.31c185.71,-56.51 313.65,143.93 599.12,334.52 1050.05,701 1171.13,249.33 1026.61,916.82 -42.54,196.48 -221.69,621.75 -353.07,669.12 -355.36,128.14 -1243.06,-479.29 -1388.59,-624.13 -375.55,-373.79 -509,-1106.19 115.93,-1296.33zm6298.99 -3426.22c-19.3,-140.39 28.75,-243.89 97.01,-334.57 171.73,10.64 189.55,77.5 162.09,263.23 -94.19,84.98 -85.83,100.66 -259.1,71.34zm-225.17 -213.03c-103.44,283.85 -538.01,439.41 -825.94,225.38 -115.59,-73.68 -51.43,-4.3 -112.63,-108.02 -361.64,-313.19 -132.59,-849.14 247.77,-973.93 478.78,-157.06 911.57,401.64 758.3,642.85 -6.68,120.89 3.52,129.95 -67.5,213.72zm390.94 -634.68l177 -29.14c182.31,-78.77 532.34,-34.1 683.4,64.24 178.69,116.33 146.46,413.3 85.58,640.04 -97.89,364.52 -368.55,806.81 -735.25,890.19 -128.49,35.95 -211.4,19.58 -305.14,-37.98 -188.03,-60.04 -355.72,-259.14 -383.07,-449.01 195.8,-158.79 165.67,14.99 409.22,17.57 172.78,1.83 249.91,-109.9 352.59,-196.02l46.9 -173.87c-38.21,-651.6 -445.74,-222.59 -439.35,-689.86l108.1 -36.16zm-1673.45 77.52c-4.58,12.18 -13.11,68.77 -34.19,92.08 -284.2,-71.6 -200.82,-313.73 -141.68,-388.92 66.46,-84.5 230.24,-130.98 303.75,-52.03 105.99,113.83 -2.1,83.14 -4.03,86.56l-123.85 262.32zm-196.13 606.65l-153.29 27.36c-135.13,72.07 -671.79,117.29 -804.83,-406.72 -165.55,-652.1 762.94,-2540.6 1587.5,-1166.9l85.04 204.17 59.89 176.57c-238.17,210.96 -247.22,-8.47 -490.25,-36.96 -520.47,-61 -665.16,508.66 -422.42,778.22 170.58,189.43 326.68,59.22 299.63,371.24l-161.27 53.02zm-4496.25 -296.13c-176.67,-325.26 -95.22,-863.63 79.95,-1167.61 233.07,-404.44 613.94,-235.37 1029.66,-82.45 486.28,178.87 479.11,377.34 1060.74,271.44 349.88,-63.71 927.76,-67.88 1299.08,-60.52 -28.52,243.17 -370.3,914.49 28.17,1349.04 368.08,401.41 786.91,252.9 1284.53,124.26 283.4,288.1 373.89,365.6 900.77,331 64.07,249.59 278.75,478.03 483.3,573.27 384.31,178.93 584.79,-11.11 831.4,-123.35 60.83,207.75 148.58,429.03 104.07,662.28 -199.8,96.55 -534.33,12.28 -503.05,263.14 147.92,89.07 314,3.04 517.49,14.08 15.75,193.1 0.25,371.67 -58.89,548.94 -125.97,15.16 -239.8,9.84 -323.59,61.81 21.16,171.71 104.01,115.4 238.53,203.7 -18.24,206.51 -132.83,357.36 -203.58,500.33 -213.51,2.1 -264,-77.71 -389.42,31.14 33.05,207.59 81.81,89.23 173.81,243.27 -214.06,340.12 -797.45,605.17 -1278.75,738.08 -985.03,272 -2588.07,260.06 -3572.23,-20.06 -392.13,-111.61 -1133.16,-434.94 -1286.2,-682.8 137.92,-144.19 204.74,-59.15 233.74,-245.38 -152.16,-128.56 -246.19,18.49 -492.67,27.47 -113.65,-118.19 -253.58,-269.36 -273.55,-456.1 109.37,-47.95 347.68,-66.49 279.32,-198.06 -36.65,-44.45 -105.74,-40.14 -169.22,-42.4 -90.39,-3.21 -107.12,10.57 -214.11,-2.81 -104.49,-146.87 -151.38,-358.75 -131.49,-567.71l483.1 -27.14c8.37,-168.08 -20.11,-163.3 -199.77,-194.05 -116.75,-19.98 -203.45,-26.06 -321.8,-58.23 -53.95,-391.88 125.76,-942.09 257.03,-1248.9 218.43,-510.5 696.76,-870.58 133.61,-765.68zm5397.67 -1176.76c133.93,-140.61 737.37,-397.5 1007.78,-398.36 357.9,-1.13 448.76,639.15 448.84,922.5 -393.58,22.76 -428.34,56.64 -733.38,129.93 -169.02,-156.81 -288.83,-289.61 -627.35,-317.69l-95.88 -336.38zm-157.53 -321.72c-566.05,-574.26 -920.26,-686.55 -1496.22,13.61 -106.72,129.73 -99.47,101.04 -298.51,100.49 -339.72,-0.95 -812.41,0.79 -1132.04,46.15 -335.21,47.57 -348.42,119.29 -658.23,-32.79 -284.89,-139.86 -857.95,-359 -1209.8,-369.32 -489.46,-14.35 -681.77,402.84 -779.71,829.45 -183.58,799.65 160.67,1070.74 49.96,1349.04 -70.16,176.39 -180.12,326.02 -257.02,552.22 -58.36,171.62 -128.71,450 -143.59,639.13 -33.92,431.43 69.12,375.04 -381.75,418.91 -203.98,19.85 -553.23,10.47 -471.57,264.94 273.8,55.35 534.75,-72.24 824.43,-15.8 78.37,119.11 149.33,471.47 143.31,636.69 -347.56,95.11 -542.02,119.48 -519.81,316.5 219.33,89.58 366.61,-91.52 639.9,-50.59 88.86,89.93 200.01,293.54 254.08,402.74 -137.45,110.4 -465.67,154.96 -570.61,651.8 -171.1,810.07 616.95,1403.13 1263.31,1694.66 182.2,82.18 257.77,72.1 400.89,128.09 6.14,2.41 21.28,20.18 25.65,12.51 4.38,-7.68 17.37,7.96 25.32,13.2 -133.08,352.93 -400.38,760.39 -477.97,1148.24 -169.15,845.61 208.58,1791.65 1046.7,2080.7 646.81,223.07 1043.82,-163.48 1198.49,-181.18 103.1,846.62 580.12,1039.9 1479.22,921.83 197.84,-25.98 361.48,-47.77 550.29,-98.89 134.3,-36.36 323.29,-145.54 446.79,-125.13 131.68,21.78 257.86,109.55 471.5,127.17 1796.31,148.11 2074.47,-2484.38 221.43,-2675.92l-88.49 -462.37c539.97,64.45 672.56,185.24 1175.75,-94.75 787.13,-438 314.32,-1153.55 275,-1482.2 -23.58,-197.12 -145.32,-332.56 -291.7,-411.48 -325.31,-175.41 -501.09,130.33 -1072.54,-225.05 74.19,-69.51 442.53,-278.86 551.98,-355.36 589.36,-411.94 283.02,-569.01 915.31,-273.96 104.42,48.73 331.9,163.34 401.78,74.18 69.38,-247.81 -449.07,-351.57 -645.92,-501.31 6.29,-141.49 154.64,-441.47 210.2,-560.77 218.95,-8.48 564.43,84.33 745.85,-2.68 -34.84,-282.88 -508.93,-169.12 -634.53,-274.53 -79.2,-66.47 -5.63,-542.35 44.25,-592.89 131.29,-133.04 747.36,45.79 841.32,-82.81 79.44,-260.89 -628.71,-186.37 -859.2,-207.21 -41.74,-128.97 -61.26,-310.33 -93.07,-472.24 -33.29,-169.49 -94.05,-289.22 -123.08,-447.99 161.59,-270.69 294.7,-445.12 327.88,-847.92 40.15,-487.46 -99.08,-558.39 -408.96,-706.46 -155.31,-2170.81 -1458.91,-946.72 -1916.27,-870.66z"/>
   <path class="fil0" d="M2220.45 9763.78c194.1,1918.25 2503.28,1765.34 2417.42,-176.5 -30.83,-697.05 -574.89,-1424.15 -1296.3,-1379.58 -689.34,42.59 -1200.99,766.74 -1121.12,1556.07z"/>
   <path class="fil0" d="M6465.24 11630.17c-59.25,-122.15 -130.21,-147.5 -212.63,-272.98 -463.09,-704.97 -165.54,-1657.32 584.97,-1969.32 363.32,-151.04 261.2,7.69 351.9,-152.32 -152.75,-190.07 -1282.38,191.83 -1499.29,271.31 -1049.21,384.47 -794.47,554.03 -962.75,941.96 -132.18,304.74 -266.37,308.56 -220.81,720.09 31.96,288.77 158.35,480.25 363.52,585.06 368.42,188.23 1264.65,30.57 1595.1,-123.8z"/>
   <path class="fil0" d="M6599.52 6827.68c-95.56,502.55 311.62,1156.94 499.68,1465.06 134.4,220.17 281.25,306.43 676.9,328.69 685.3,38.55 1142.93,-500.76 814.05,-1007.74 -145.46,-224.22 40.23,-634.11 -409.9,-578.93 -410.04,50.26 -11.88,114.64 -746.21,-132.07 -225.8,-75.86 -607,-179.76 -834.52,-75z"/>
   <path class="fil0" d="M1451.56 5856.19c-624.93,190.14 -491.48,922.54 -115.93,1296.33 145.53,144.84 1033.23,752.26 1388.59,624.13 131.38,-47.37 310.53,-472.65 353.07,-669.12 144.52,-667.49 23.44,-215.82 -1026.61,-916.82 -285.47,-190.59 -413.4,-391.03 -599.12,-334.52z"/>
   <path class="fil2" d="M4584.91 8123.63c-317.29,43.77 -292.44,-236.65 -142.4,-287.59 196.75,-66.8 279.3,122.18 142.4,287.59zm1742.77 -427.95c84.79,138.02 91.66,126.07 7.35,268.9 -238.6,34.64 -284.53,-57.1 -225.57,-264.2l218.23 -4.7zm-3040.54 -395.27c38.97,33.48 51.2,-72.67 66.23,104.71 4.1,48.35 -1.32,48.95 -24.68,87.98 -32.88,54.92 -70.73,56.29 -133.91,77.45 -106.9,122.94 -162.53,274.74 -279.94,386.3l104.85 14.4 4.01 65.11c400.56,-70.74 643.66,-85.98 986.45,106.43 204.76,114.92 134.17,117.12 417.82,127.34 210.65,7.59 409.01,15.6 620.46,6.23 14.07,-127.61 15.98,-103.02 86.35,-170.9 178.7,-11.02 190.81,-1.5 214.45,163.15l1019.23 -44.23c62.26,-3.48 100.42,-4.73 161.08,-16.67l174.25 -63.82c-103.34,-401.03 -335.54,-516.81 -367.66,-1279.56l-315.85 41.69 -36.11 117.69 -109.87 27.15c-47.72,75.87 -61.84,130.49 -107.35,209.19 -46.32,80.09 -104.73,144.95 -144.63,210.76 135.96,75.59 37.28,181.13 -4.13,243.42l-176.59 -3.83 -20.35 -87.92c-213.86,117.58 -402.69,184.45 -710.16,180.71 -343.63,-4.18 -439.8,-117.74 -687.03,-214.82l-6.9 214.33c-256.91,87.35 -349,-59.53 -218.63,-255.89l178.68 -4.34c-65.2,-99.27 -148.49,-165.99 -225.25,-305.68 -72.12,-131.24 -75.15,-263.15 -136.03,-382.55 -75.97,17.47 -148.39,22.56 -243.83,-11.23l-84.97 457.42z"/>
   <path class="fil3" d="M8020.09 10573.72c45.2,-212.19 89.43,-549.82 -103.59,-668.08 -241.3,-147.83 -254.68,-226.15 -550.45,-59.72 -351.32,197.69 -610.95,505.11 -688.83,1006.45 -100.16,644.75 -51.06,1091.07 618.34,682.32 329.77,-201.36 626.4,-500.38 724.52,-960.96z"/>
   <path class="fil2" d="M5247.96 1733.26c203.96,-110.8 300.04,176.15 145.27,262.19 -88.97,49.47 -186.7,3.19 -215.89,-62.16 -64.94,-145.39 12.67,-168.56 70.62,-200.03zm215.08 -397.03c-115.16,-225.99 70.28,-338.97 208.69,-244.12 114.36,78.38 98.09,328.87 -208.69,244.12zm326.49 -712.11c-44.49,-304.82 234.46,-288.74 286.4,-145.49 66.49,183.39 -117.53,287.14 -286.4,145.49zm103.93 1669.67l-121.26 3.5c-55.98,-352.04 311.67,-358.14 274.54,-30.87l161.27 -53.02c27.05,-312.02 -129.04,-181.82 -299.63,-371.24 -242.74,-269.56 -98.05,-839.22 422.42,-778.22 243.03,28.49 252.09,247.91 490.25,36.96l-59.89 -176.57 -29.28 73.33c-247.78,22.3 -294.1,-36.54 -230.59,-262.42l174.83 -15.08c-824.56,-1373.71 -1753.05,514.8 -1587.5,1166.9 133.04,524.01 669.7,478.79 804.83,406.72z"/>
   <path class="fil2" d="M8611.89 1648.91c213.15,-93.55 291.83,200.39 128.91,277.89 -185.33,88.16 -331.23,-189.12 -128.91,-277.89zm-695.57 -66.65l-108.1 36.16c-6.39,467.28 401.13,38.26 439.35,689.86 305.3,-72.2 353.32,315.41 -20.68,268.32 -31.45,-44.85 -18.54,-22.47 -26.22,-94.45 -102.68,86.12 -179.81,197.84 -352.59,196.02 -243.55,-2.59 -213.42,-176.37 -409.22,-17.57 27.35,189.88 195.04,388.97 383.07,449.01 41,-112.63 20.17,-72.83 96.11,-141.99 162.46,-15.28 208.45,26.09 209.03,179.96 366.7,-83.38 637.36,-525.66 735.25,-890.19 60.88,-226.73 93.12,-523.7 -85.58,-640.04 -151.06,-98.34 -501.1,-143 -683.4,-64.24 0.46,0.98 84.74,39.18 -40.46,75.37 -182.81,52.85 -127.64,-29.21 -136.54,-46.23z"/>
   <path class="fil0" d="M6948.17 793.54l95.88 336.38c338.52,28.08 458.34,160.88 627.35,317.69 305.04,-73.29 339.8,-107.18 733.38,-129.93 -0.08,-283.35 -90.94,-923.63 -448.84,-922.5 -270.41,0.86 -873.85,257.75 -1007.78,398.36z"/>
   <path class="fil2" d="M6867.29 1970.85c-72.61,-117.51 -78.41,-145.86 -5.74,-266.95 354.46,-57.17 359.75,318.98 5.74,266.95zm-280.48 363.46l139.38 27.56c53.9,186.4 15.13,21.49 -26.75,80.46 287.92,214.02 722.5,58.47 825.94,-225.38 -64.66,-102.78 -35.06,-103.16 -1.57,-209.35l69.07 -4.37c153.28,-241.21 -279.52,-799.92 -758.3,-642.85 -380.36,124.79 -609.41,660.75 -247.77,973.93z"/>
   <path class="fil0" d="M5668.16 6919.25l-1824.36 -70.4c28.66,418.86 418.43,733.73 870.15,753.65 461.26,20.34 916.26,-289.26 954.2,-683.25z"/>
   <path class="fil4" d="M6490.66 11401.94c84.36,-518.61 -14.92,-807.64 290.1,-1225.28 494.37,-676.89 760.75,-364.89 794.25,-694.6 -151.32,-95.99 -432.24,-44.75 -595.5,10.23 -784.73,264.2 -1087.83,1285.57 -488.85,1909.65z"/>
   <path class="fil4" d="M7203.68 11801.17c1731.99,81.88 1415.27,-2018.64 1052.57,-1843.34 -132.11,63.85 -60.26,248.64 -65.75,440.74 -27.82,975.7 -891.06,1181.08 -986.83,1402.6z"/>
   <path class="fil2" d="M6759.87 8773.43c-25.87,164.77 -64.72,175.14 -244.79,138.19l-38.55 -109.75 -1447.2 83.51 -63.02 170.94c-131.45,13.82 -132.25,12.14 -215.75,-32.26 55.34,220.18 87.4,337.62 121.74,580.68l607.67 -297.62c-178.7,-262.36 188.38,-416.7 260.06,-85.59 225.35,-48.07 443.88,-123.98 659.94,-170.17 226.64,-48.45 447.2,-75.35 689.98,-115.11l-28.57 -178.46 -301.52 15.65z"/>
   <path class="fil0" d="M4434.51 8465.62c46.05,99.28 107.76,201.48 207.02,219.8 811.29,-0.36 1472.72,-59.93 2265.66,-109.43 66.89,-283.64 -191.85,-211.43 -398.91,-186.17 -226.23,27.6 -431.22,34.77 -661.32,52.59 -463.98,35.96 -962.71,-15.42 -1412.45,23.21z"/>
   <path class="fil1" d="M4711.32 5296.66c-12.92,-191.2 48.74,-261.39 247.05,-256.33 183.54,4.68 247.4,71.13 237.23,246.75 -159.7,126.45 -312.55,103.28 -484.28,9.58zm673.51 30.04c202.29,-463.41 -678.03,-651.36 -856.22,-253.28 -216.27,483.13 687.03,640.91 856.22,253.28z"/>
   <path class="fil1" d="M6354.3 4743c170.23,21.7 159.42,-164.59 436.01,-156.85 260.48,7.29 182.1,171.92 387.86,223.17 14.81,-25.7 123.34,-119.5 -81.56,-280.66 -260.82,-205.13 -805.19,-103.42 -742.31,214.34z"/>
   <path class="fil1" d="M2567.41 4724.1c259.19,6.97 85.64,-198.3 419.45,-202.05 291.89,-3.29 229.29,203.43 445.7,161.35 11.92,-428.59 -928.68,-457.49 -865.15,40.7z"/>
   <path class="fil5" d="M4711.32 5296.66c171.73,93.7 324.58,116.87 484.28,-9.58 10.18,-175.63 -53.69,-242.07 -237.23,-246.75 -198.31,-5.06 -259.97,65.13 -247.05,256.33z"/>
   <path class="fil2" d="M6242.87 1659.78c-76.8,-21.63 -61.36,-3 -108.72,-42.22l6.49 -206.63 226.08 -13.47c1.94,-3.42 110.02,27.27 4.03,-86.56 -73.51,-78.95 -237.29,-32.46 -303.75,52.03 -59.14,75.19 -142.52,317.32 141.68,388.92 21.08,-23.31 29.61,-79.89 34.19,-92.08z"/>
   <path class="fil0" d="M4584.91 8123.63c136.89,-165.4 54.34,-354.39 -142.4,-287.59 -150.03,50.94 -174.89,331.35 142.4,287.59z"/>
   <path class="fil0" d="M8611.89 1648.91c-202.32,88.77 -56.42,366.05 128.91,277.89 162.91,-77.5 84.24,-371.43 -128.91,-277.89z"/>
   <path class="fil0" d="M5789.53 624.12c168.87,141.65 352.89,37.9 286.4,-145.49 -51.94,-143.25 -330.88,-159.33 -286.4,145.49z"/>
   <path class="fil0" d="M5247.96 1733.26c-57.95,31.47 -135.55,54.64 -70.62,200.03 29.19,65.35 126.92,111.63 215.89,62.16 154.77,-86.05 58.69,-372.99 -145.27,-262.19z"/>
   <path class="fil2" d="M7750.55 2429.97c173.27,29.33 164.9,13.64 259.1,-71.34 27.46,-185.73 9.65,-252.59 -162.09,-263.23 -68.26,90.68 -116.31,194.18 -97.01,334.57z"/>
   <path class="fil0" d="M5463.04 1336.23c306.78,84.75 323.05,-165.74 208.69,-244.12 -138.41,-94.85 -323.85,18.12 -208.69,244.12z"/>
   <path class="fil0" d="M6109.45 7700.38c-58.95,207.1 -13.02,298.84 225.57,264.2 84.31,-142.83 77.44,-130.88 -7.35,-268.9l-218.23 4.7z"/>
   <path class="fil0" d="M6867.29 1970.85c354.01,52.02 348.72,-324.12 -5.74,-266.95 -72.67,121.1 -66.86,149.44 5.74,266.95z"/>
   <path class="fil0" d="M4024.05 7588.35l-46.85 -45.9 -178.68 4.34c-130.36,196.36 -38.27,343.24 218.63,255.89l6.9 -214.33z"/>
   <path class="fil0" d="M8200.66 2482.15c7.68,71.99 -5.23,49.61 26.22,94.45 374,47.09 325.98,-340.52 20.68,-268.32l-46.9 173.87z"/>
   <path class="fil0" d="M6761.17 924.34l-85.04 -204.17 -174.83 15.08c-63.51,225.88 -17.2,284.72 230.59,262.42l29.28 -73.33z"/>
   <path class="fil0" d="M5893.46 2293.79l153.29 -27.36c37.13,-327.28 -330.52,-321.18 -274.54,30.87l121.26 -3.5z"/>
   <path class="fil0" d="M8199.87 9826.19c-42.73,-156.45 -243.76,-276.34 -468.84,-285.52 76.85,174.01 241.15,270.47 468.84,285.52z"/>
   <path class="fil0" d="M5479.97 9307.12l260.06 -85.59c-71.69,-331.11 -438.77,-176.77 -260.06,85.59z"/>
   <path class="fil0" d="M7821.91 3109.6c93.73,57.56 176.65,73.92 305.14,37.98 -0.58,-153.87 -46.57,-195.24 -209.03,-179.96 -75.94,69.15 -55.11,29.36 -96.11,141.99z"/>
   <path class="fil0" d="M4750.56 9024.06c83.5,44.41 84.3,46.08 215.75,32.26l63.02 -170.94 -319.89 0.85 41.12 137.83z"/>
   <path class="fil0" d="M5421.24 7622.46l20.35 87.92 176.59 3.83c41.41,-62.29 140.1,-167.83 4.13,-243.42l-201.07 151.66z"/>
   <path class="fil0" d="M5048.43 8276.35l300.8 -7.75c-23.64,-164.65 -35.75,-174.18 -214.45,-163.15 -70.37,67.88 -72.28,43.3 -86.35,170.9z"/>
   <path class="fil0" d="M6242.87 1659.78l123.85 -262.32 -226.08 13.47 -6.49 206.63c47.36,39.22 31.92,20.59 108.72,42.22z"/>
   <path class="fil0" d="M6759.87 8773.43l-283.34 28.44 38.55 109.75c180.07,36.95 218.91,26.58 244.79,-138.19z"/>
   <path class="fil6" d="M3194.77 7570.55c63.18,-21.16 101.02,-22.53 133.91,-77.45 23.37,-39.03 28.79,-39.63 24.68,-87.98 -15.04,-177.37 -27.26,-71.23 -66.23,-104.71l-92.36 270.14z"/>
   <path class="fil6" d="M3372.09 6842.99c95.44,33.79 167.86,28.71 243.83,11.23 -24.38,-107.68 -80.92,-76.01 -207.47,-91.79l-36.36 80.55z"/>
   <path class="fil6" d="M7525.38 2216.94c71.03,-83.77 60.82,-92.84 67.5,-213.72l-69.07 4.37c-33.49,106.19 -63.09,106.57 1.57,209.35z"/>
   <polygon class="fil6" points="5874.28,7050.86 5984.16,7023.71 6020.26,6906.02 5895.57,6926.65 "/>
   <path class="fil6" d="M8093.32 1553.12l-177 29.14c8.91,17.03 -46.26,99.09 136.54,46.23 125.2,-36.19 40.92,-74.39 40.46,-75.37z"/>
   <path class="fil6" d="M3023.7 8036.36l-4.01 -65.11 -104.85 -14.4c-47.06,73.65 -19.75,14.52 -45.4,114.76l154.27 -35.26z"/>
   <path class="fil7" d="M6699.44 2442.33c41.88,-58.97 80.65,105.94 26.75,-80.46l-139.38 -27.56c61.2,103.72 -2.97,34.34 112.63,108.02z"/>
  </g>
 </g>
</svg>
