<?xml version="1.0" encoding="UTF-8"?>
<!DOCTYPE svg PUBLIC "-//W3C//DTD SVG 1.1//EN" "http://www.w3.org/Graphics/SVG/1.1/DTD/svg11.dtd">
<!-- Creator: CorelDRAW -->
<svg xmlns="http://www.w3.org/2000/svg" xml:space="preserve" width="91.8192mm" height="124.171mm" version="1.1" style="shape-rendering:geometricPrecision; text-rendering:geometricPrecision; image-rendering:optimizeQuality; fill-rule:evenodd; clip-rule:evenodd"
viewBox="0 0 9167.68 12397.89"
 xmlns:xlink="http://www.w3.org/1999/xlink"
 xmlns:xodm="http://www.corel.com/coreldraw/odm/2003">
 <defs>
  <style type="text/css">
   <![CDATA[
    .fil0 {fill:#030303}
    .fil2 {fill:#7D89C0}
    .fil8 {fill:#838383}
    .fil3 {fill:#B9E3F6}
    .fil5 {fill:#D65E91}
    .fil4 {fill:#E2AAC2}
    .fil6 {fill:#F5D178}
    .fil7 {fill:#F8D7E9}
    .fil1 {fill:#FDFDFD}
   ]]>
  </style>
 </defs>
 <g id="Layer_x0020_1">
  <metadata id="CorelCorpID_0Corel-Layer"/>
  <g id="_2647462452512">
   <path class="fil0" d="M4647.39 12086.94c-211.24,-57.33 -379.75,-256.87 -850.07,-293.59 -445.45,-34.8 -649.77,114.93 -986.64,172.3 -280.49,-267.25 -362.32,-711.53 -1398.03,-745.67 135.17,-239.71 579.93,-510.28 721.42,-696.27 69.61,-91.51 109.23,-198.24 184.07,-296.59 354.9,139.85 605.31,567.39 1759.03,568.63 282.94,0.3 498.98,-49.35 735.1,-60.67 26.12,437.78 -105.38,940.42 -164.88,1351.86zm-2075.31 -3337.36c283.4,-53.69 1153.94,223.85 1404.96,333.58 914.88,399.94 800.11,438.57 761.73,1438.93l-624.48 88.05c-808.59,-17.73 -1170.35,-227.55 -1660.13,-560.45l117.93 -1300.11zm2845.67 -1026.71c182.25,62.75 317.25,246.62 576.18,330.18 345.35,111.47 489.24,-24.71 792.17,-61.96 316.25,417.08 317.77,540.41 1053.48,612.01 -55.63,184.43 -668.09,1102.37 -814.96,1321.84 -243.7,364.16 -661.6,912.58 -1258.58,896.38 -641.98,-17.42 -879.34,-691.87 -758.77,-1358.91 101.45,-561.18 258.23,-1199.65 410.48,-1739.53zm-2731.36 676.24l-3.87 -13.83c31.86,-92.92 91.13,-67.62 219.7,-53.84 78.14,8.39 162.5,24.63 259.17,33.78 135.3,12.8 389.37,-2.62 474.52,75.06l105.32 -11.78 1260.32 47.04 -172.37 832.45c-106.7,-42.35 -503.98,-291.18 -584.62,-351.03l-249.2 -91.49c-214.45,-82.06 -397.2,-147.3 -647.47,-209.77 -161.72,-40.37 -588.79,-81.83 -706.87,-164.69 17.48,-160.94 3.71,-49.47 45.39,-91.89zm177.19 -416.14c214.66,-24.6 796.96,77.56 1073.89,91.94 388.65,20.17 778.05,13.83 1162.6,33.92 -62.83,286.52 -108.53,221.52 -448.04,197.67 -214.69,-15.08 -427.43,-13.15 -645.72,-29.7 -423.2,-32.11 -798.07,-63.24 -1213.88,-119.08l71.15 -174.75zm2309.42 -228.9c-10.96,181.07 11.29,160.65 -149.64,183.69 -287.46,2.15 -855.67,63.3 -1081.47,-50.72 -225.02,43.54 -691.4,-27.67 -954.27,-31.78 61.33,-215.07 177.84,-376.04 253.5,-588.59 96.35,-270.71 59.56,-387.4 118.65,-655.01l331.05 27.34c11.9,46.65 34.32,18.12 91.07,214.32 64.76,223.87 212.34,403.41 416.84,532.41 390.16,246.12 600.47,143.31 1038.54,88.64l-64.26 279.7zm1108.08 52.34c-107.84,84.12 -265.54,48.5 -378.64,-15.9 -54.53,-31.04 -106.34,-67.1 -146.34,-97.42 -91.56,-69.42 -75.19,-54.91 -126.68,-133.79l-70.16 -41.13 -150.22 -117.77c71.4,-144.45 206.05,-186.9 305.34,-404.21 131.3,-287.38 -4.54,-359.32 341.8,-384.69 8.84,263.42 26.82,472.57 122.32,694.14 76.21,176.81 264.89,364.5 245.81,501.56l-143.22 -0.8zm-3142.17 -1214.04c17.07,529.36 -244.89,996.42 -473.26,1331.49 -233.25,342.22 -957.47,388.86 -1291.46,32.52 -144.71,-154.39 -207.33,-433.48 -66.78,-653.26 173.21,-270.84 -17.18,-501.83 309.3,-538.84 229.68,-26.04 146.99,96.99 396.79,16.86 434.53,-139.37 617.69,-268.24 1125.41,-188.78zm3132.49 11.2c453.61,-252.02 1036.35,216.27 1241.51,279.52 223.32,68.83 283.04,-70.55 491.21,105.8 37.35,157.62 6.32,139.69 11.01,271.12 7.27,203.34 232.85,406.69 0.89,701.32 -141.97,180.34 -619.4,427.12 -879.69,178.44 -78.53,-75.01 -130.62,-324.94 -224.67,-374.03 -102.76,-53.64 -111.46,13.88 -217.14,-62.34 -16.63,-11.99 -118.92,-146.72 -140.46,-176.83 -195.72,-273.42 -293.19,-492.66 -282.65,-923zm-676.69 82.91c-128.77,928 -1575.14,797.16 -1622.98,14.28 591.05,14.22 1039.67,4.8 1622.98,-14.28zm-4476.5 -2192.49c-8.37,-136.37 -33.48,-121.98 38.96,-219.7 8.08,8.98 90.77,-62.89 37.68,123.06 -47.74,167.23 -24.1,43.01 -76.64,96.64zm929.22 -668.15c518.05,253.55 1061.4,309.83 1676.73,86.83 836.86,-303.29 691.12,-715.9 1337.05,-311.11 399.82,250.56 1044.06,456.75 1622.49,311.78 895.9,-224.55 490.23,-627.9 1263.36,-680.64 58.16,112.53 115.88,402.85 94.57,531.04 -318.93,129.13 -452.24,0.5 -472.68,224.15 127.75,101.85 290.72,14.73 469.64,17.22 49.44,166.7 26.49,376.85 -41.35,523.55 -160.42,25.73 -169.62,-16.7 -285.26,62.48 18.91,153.37 82.72,113.53 228.62,176.75 -65.81,616.72 -392.24,441.17 -519.31,486.51 -24.04,248.19 43.79,49.76 137.93,246.26 -125.95,252.7 -611.86,522.34 -993.06,659 -429.76,154.08 -892.89,207.3 -1370.84,249.17 -1181.39,103.53 -1926.39,-59.59 -2854.05,-408.5 77.69,-156.95 471.06,-383.93 438.9,-781.12 -137.58,-107.69 -405.73,-170.59 -602.62,-165.72 -73.51,106.76 -200.07,490.45 -437.38,210 -81.64,-178.25 196.58,-1257.53 307.25,-1437.65zm-940.45 210.84c-100.85,-170.63 -12.33,-424.97 6.51,-627.88l319.68 35.28 -171.52 615.81 -154.67 -23.2zm-62.16 -893.14c30.41,-139.51 42.74,-104.86 201.14,-152.74 123.91,-37.45 168.34,-60.68 305.38,-66.6l-45.63 298.04c-173.61,-3.79 -344.79,9.89 -460.88,-78.7zm6669.62 -372.2c82.34,-7.16 139.48,4.91 218.49,31.1 167.28,55.44 105.32,18.97 133.82,130.02 -74.69,106.3 -93.13,83.72 -402.12,113.23l49.8 -274.35zm-2028.43 -845.45c1822.03,-167.73 1414.68,1232.15 689.69,1400.9 -521.2,121.31 -924.17,-140.94 -1273.38,-327.44 -499.78,-266.94 -831.06,54.92 -1207.28,243.02 -353.67,176.84 -981.78,279.05 -1334.24,46.4 -452.21,-298.51 -217.09,-987.99 32.11,-1136.53 492.45,-293.53 2356.22,-158.51 3093.1,-226.35zm-3135.32 -132.6c649.21,-151.02 2543.56,-117.34 3355.89,-160.81 583.6,-31.24 1124.96,17.25 1393.23,364.52 579.96,750.76 -42.7,1948.39 -1340.03,1724.97 -686.43,-118.22 -952.52,-499.99 -1249.87,-509.25 -358.74,-11.16 -626.36,391.07 -1209.28,550.66 -672.36,184.07 -934.31,56.24 -1399.22,-156.66l86.11 -415.18c51.25,-107.92 27.8,-52.85 60.27,-86.85 166.18,209.05 187.59,260.51 447.3,360 768.46,294.38 1619.6,-383.89 1821.07,-441.01 430.04,-121.93 797.15,253.38 1169.12,372.21 1266.7,404.68 1731.68,-995.17 1095.26,-1408.22 -363.77,-236.08 -891.75,-158.95 -1366.41,-150.56 -509.89,9.03 -1042.27,13.76 -1548.04,38.47 -605.37,29.58 -834.93,-12.64 -1380.85,207.44l65.45 -289.76zm5117.34 466.79l-93.9 -276.88 -170.41 -161.19c-69.67,-74.89 -73.59,-60.64 -118.64,-150.96 747.58,-356.5 1234.85,209.1 758.98,936.09 -306.81,-11.77 -320.28,-72.14 -376.04,-347.06zm-2875.25 -813.64c25.81,-289.93 266.14,-695.12 434.77,-810.25 567.88,-387.7 1060.49,528.07 1044.06,611.79 -32.89,167.56 -269.87,-33.11 -469.83,-12.27 -392.31,40.88 77.27,285.26 -1009,210.73zm-2052.46 -329.12c182.84,25.41 188.58,136.5 416.83,123.88 195.53,-10.82 940.99,-206.28 1458.69,-113.35 -9.5,120.88 -57.9,252.52 -116.54,330.7l-1875.67 78.32 116.68 -419.54zm3694.83 -190.15c108.54,-103.99 673.82,-363.07 879.53,-363.78 378.76,-1.33 422.06,685.61 406.45,766.01 -637.8,56.58 -480.92,211.82 -778.74,39.91 -380.24,-219.5 -326.98,57.82 -507.24,-442.14zm-4895.28 1205.12c-168.82,-25.27 -55.62,80.76 -155.48,-27.81 -120.33,-130.85 -80.91,-611.24 -29.18,-805.15 114.14,-427.89 264.58,-539.66 741.91,-432.59 -30.3,287.07 -175,726.49 -256.09,1025.72 -59.78,220.56 -137.61,275.13 -210.48,462.55 -85.21,219.09 4.45,327.01 -269.7,364.27 81.71,-212.2 264.64,-339.87 269.3,-560.8l-90.27 -26.2zm1010.29 3232.74c-229.37,574.78 -1015.56,800.82 -1257.02,106.54 -149,-428.46 181.38,-1322.07 298.31,-1785.97 104.25,-413.56 814.18,-3313.91 937.77,-3454.9 249.89,-7.87 209.57,51.69 147.5,271.18 -381.07,1347.58 -765.29,2911.56 -1117.47,4277.35 -81.9,317.65 -102.84,602.35 144.55,738.29 328.08,180.27 464.4,-112.27 616.32,-237.96l230.04 85.47zm-1704.14 -210.55c92.58,-76.44 46.08,-53.64 181.5,-37.34l24.43 250.65 95.01 344.88c-164.09,163.81 -430.19,172.09 -399.96,444.67 214.6,34.6 359.67,-163.41 550.9,-245.92 246.83,134.27 235.63,188.68 598.73,199.47 236.81,7.05 333.8,138.39 538.11,222.48 -52.66,51.2 8.56,14.67 -97.9,68.66 -32.47,16.46 -90.01,33.16 -129.97,46.27 -623.63,204.69 -447.77,-28.45 -772.09,104.9 -133.75,54.99 -257.93,182.38 -289.1,338 -27.55,137.58 10.48,132.9 -44.97,275.34 -27.09,69.57 -75.52,133.61 -99.51,217.72 -120.74,423.53 129.02,730.31 349.96,877.69 403.66,269.28 599.12,143.08 1068.45,108.13 -40.62,336.68 -99.95,649.9 -126.25,1000.01 -58.79,782.66 -187.79,954.97 -828.35,1469.11 -110.49,88.67 -585.06,440.52 -514.44,557.26 27.75,37.69 -30.11,75.58 275.49,52.23 1262.56,-96.48 1317.31,726.31 1514.25,775.21 122.79,-13.5 321.35,-112.7 482.3,-155.72 945.31,-252.64 1228.16,310.87 1568.25,329.73 143.21,-368.94 209.59,-1212.26 241.05,-1659.65 187.55,36.65 120.13,144.59 482.2,254.8 1010.41,307.56 1715.4,-964.65 2100.22,-1603.95 124.24,-206.39 539.03,-775.92 549.83,-968.45 -72.44,-73.53 -126.31,-59.78 -199.71,-117.44 487.38,-205.73 389.9,-645.28 319.45,-958.9 -39.21,-174.56 35.75,-245.79 -60.21,-432.84 -215.65,-420.38 -309.75,-15.7 -1288.2,-566.49 67.91,-84.1 485.22,-264.48 780.71,-582.16 154.5,-166.11 172.39,-220.97 430.31,-110.65 149.46,63.93 356.54,176.02 524.07,150.26 58.22,-243.9 -255.16,-270.31 -608.74,-476.57 18.09,-152.38 137.9,-409.31 203.52,-524.22 221.95,-25.34 464.47,81.48 669.2,-4.61 -4.36,-144.85 -81.59,-151.75 -235.22,-187.09 -67.72,-15.58 -111.82,-19.68 -177.35,-30.44 -9.88,-1.63 -87.38,-15.7 -88.5,-16.02l-85.08 -33.58c-7.2,-3.07 -19.19,-8.59 -27.95,-14.33 -36.56,-490.33 14.75,-562.63 222.07,-580.58 221.36,-19.16 457.68,74.5 625.15,-52.67 -62.79,-242.56 -560.6,-139.16 -798.45,-174.72 -115.15,-170.02 -105.7,-463.83 -83.07,-642.19 60.2,-474.6 -120.15,0.42 125.36,-649.43 206.61,-546.85 -27.82,-877.38 -385.13,-1070.6 -147.88,-1817.75 -1301.51,-857.31 -1767.99,-684.57 -241.9,-159.88 -395.95,-428.8 -805.58,-397.81 -405.4,30.68 -534.26,446.1 -707.19,522.1 -349.82,3.37 -701.67,13.14 -1048.96,50.47 -369.53,39.72 -561.61,175.65 -860.24,-49.16 23.81,-310.45 267.7,-667.76 -142.67,-768.34 -432.06,-105.9 -423.87,276.37 -520.28,551.09 -360.61,-25.26 -924.44,-276 -1104.85,791.8 -54.91,325.04 -22.28,598.62 60.66,895.04 54.93,196.39 49.35,226.51 -35.45,403.53 -133.9,279.49 -72.8,116.86 -257.59,272.9l-66.59 1088.51c-135.56,26.84 -317.16,36.23 -471.89,61.78 -205.81,34 -289.42,39.15 -297.75,223.76 269.02,80.33 717.37,-141.96 806.21,29.91 17.82,34.47 13.2,14.77 34.28,74.38l93.57 453.09c-162.74,86.07 -420.45,86.93 -499.17,284.95 146.43,118.27 226.08,22.97 411.14,5.62z"/>
   <path class="fil1" d="M4482.94 4760.03c546.54,-161.5 777.49,461.22 322.69,588.99 -573.41,161.09 -866.9,-428.18 -322.69,-588.99zm-1888.38 -608.85c375.22,-201.07 511.39,552.64 197.15,666.47 -381.54,138.22 -507.32,-500.27 -197.15,-666.47zm3750.8 -56.26c373.24,-155.49 432.47,546.71 179.19,658.84 -219.03,96.96 -343.75,-77.02 -369.89,-242.73 -34.85,-220.9 20.43,-345.18 190.69,-416.1zm-4297.93 -269.08c-110.67,180.12 -388.9,1259.39 -307.25,1437.65 237.31,280.44 363.87,-103.24 437.38,-210 196.89,-4.86 465.05,58.03 602.62,165.72 32.16,397.18 -361.21,624.17 -438.9,781.12 927.66,348.91 1672.66,512.02 2854.05,408.5 477.95,-41.87 941.08,-95.09 1370.84,-249.17 381.2,-136.66 867.1,-406.3 993.06,-659 -94.13,-196.49 -161.97,1.94 -137.93,-246.26 127.07,-45.34 453.51,130.21 519.31,-486.51 -145.9,-63.21 -209.71,-23.37 -228.62,-176.75 115.64,-79.19 124.84,-36.75 285.26,-62.48 67.83,-146.69 90.79,-356.85 41.35,-523.55 -178.92,-2.5 -341.89,84.63 -469.64,-17.22 20.44,-223.65 153.74,-95.02 472.68,-224.15 21.31,-128.18 -36.41,-418.51 -94.57,-531.04 -773.13,52.74 -367.46,456.09 -1263.36,680.64 -578.43,144.97 -1222.67,-61.21 -1622.49,-311.78 -645.94,-404.79 -500.19,7.82 -1337.05,311.11 -615.32,223 -1158.68,166.72 -1676.73,-86.83z"/>
   <path class="fil2" d="M5417.76 7722.88c-152.25,539.88 -309.03,1178.35 -410.48,1739.53 -120.57,667.04 116.79,1341.49 758.77,1358.91 596.97,16.2 1014.87,-532.21 1258.58,-896.38 146.87,-219.47 759.33,-1137.4 814.96,-1321.84 -735.72,-71.6 -737.24,-194.93 -1053.48,-612.01 -302.93,37.25 -446.82,173.43 -792.17,61.96 -258.93,-83.56 -393.93,-267.42 -576.18,-330.18z"/>
   <path class="fil3" d="M5686.02 1925.88c-736.88,67.83 -2600.65,-67.19 -3093.1,226.35 -249.2,148.55 -484.32,838.03 -32.11,1136.53 352.46,232.65 980.57,130.44 1334.24,-46.4 376.22,-188.1 707.49,-509.96 1207.28,-243.02 349.21,186.5 752.18,448.75 1273.38,327.44 724.99,-168.76 1132.34,-1568.63 -689.69,-1400.9z"/>
   <path class="fil2" d="M4647.39 12086.94c59.51,-411.44 191,-914.08 164.88,-1351.86 -236.12,11.31 -452.16,60.97 -735.1,60.67 -1153.72,-1.24 -1404.13,-428.77 -1759.03,-568.63 -74.84,98.35 -114.46,205.08 -184.07,296.59 -141.49,185.99 -586.25,456.56 -721.42,696.27 1035.71,34.14 1117.53,478.42 1398.03,745.67 336.87,-57.37 541.19,-207.1 986.64,-172.3 470.32,36.72 638.83,236.26 850.07,293.59z"/>
   <path class="fil1" d="M2454.16 10049.69c489.78,332.9 851.54,542.72 1660.13,560.45l624.48 -88.05c38.38,-1000.36 153.15,-1038.99 -761.73,-1438.93 -251.02,-109.73 -1121.56,-387.27 -1404.96,-333.58l-117.93 1300.11z"/>
   <path class="fil4" d="M2550.7 1793.27l-65.45 289.76c545.91,-220.08 775.48,-177.85 1380.85,-207.44 505.76,-24.71 1038.15,-29.44 1548.04,-38.47 474.66,-8.4 1002.64,-85.53 1366.41,150.56 636.42,413.05 171.44,1812.9 -1095.26,1408.22 -371.97,-118.84 -739.08,-494.14 -1169.12,-372.21 -201.47,57.11 -1052.62,735.39 -1821.07,441.01 -259.71,-99.5 -281.11,-150.96 -447.3,-360 -32.47,34 -9.02,-21.08 -60.27,86.85l-86.11 415.18c464.91,212.9 726.86,340.73 1399.22,156.66 582.92,-159.59 850.54,-561.83 1209.28,-550.66 297.35,9.26 563.43,391.03 1249.87,509.25 1297.33,223.42 1919.99,-974.21 1340.03,-1724.97 -268.26,-347.27 -809.62,-395.77 -1393.23,-364.52 -812.33,43.47 -2706.68,9.79 -3355.89,160.81z"/>
   <path class="fil1" d="M3138.93 6592.36c-507.72,-79.47 -690.89,49.4 -1125.41,188.78 -249.8,80.13 -167.11,-42.9 -396.79,-16.86 -326.48,37.01 -136.09,268 -309.3,538.84 -140.55,219.78 -77.93,498.87 66.78,653.26 333.99,356.34 1058.22,309.7 1291.46,-32.52 228.38,-335.07 490.34,-802.13 473.26,-1331.49z"/>
   <path class="fil1" d="M8016.03 7961.32c231.96,-294.63 6.38,-497.98 -0.89,-701.32 -4.69,-131.43 26.34,-113.5 -11.01,-271.12 -208.17,-176.35 -267.88,-36.96 -491.21,-105.8 -205.16,-63.24 -787.91,-531.53 -1241.51,-279.52 -10.54,430.33 86.93,649.58 282.65,923 21.55,30.1 123.83,164.83 140.46,176.83 105.69,76.22 114.38,8.71 217.14,62.34 94.05,49.09 146.14,299.02 224.67,374.03 260.3,248.67 737.72,1.9 879.69,-178.44z"/>
   <path class="fil4" d="M2550.17 5365.01l-230.04 -85.47c-151.92,125.69 -288.24,418.23 -616.32,237.96 -247.39,-135.94 -226.45,-420.65 -144.55,-738.29 352.18,-1365.79 736.41,-2929.77 1117.47,-4277.35 62.07,-219.49 102.39,-279.05 -147.5,-271.18 -123.6,140.99 -833.53,3041.35 -937.77,3454.9 -116.93,463.9 -447.31,1357.5 -298.31,1785.97 241.46,694.27 1027.64,468.23 1257.02,-106.54z"/>
   <path class="fil5" d="M3941.91 7887.04c72.29,-147.79 191.77,-175.08 279.43,-29.28 -60.8,44.41 71.46,28.83 -107.37,37.7 -47.5,2.36 -104.29,-10.96 -172.05,-8.42zm-210.07 -341.64c-217.25,60.6 -358.17,-77.96 -219.82,-218.05 127.02,-128.63 292.41,-16.8 219.82,218.05zm210.07 341.64c225.8,114.02 794.01,52.87 1081.47,50.72 -1.13,-154.06 18.4,-156.98 149.64,-183.69l64.26 -279.7c-438.07,54.67 -648.37,157.48 -1038.54,-88.64 -204.5,-129 -352.08,-308.54 -416.84,-532.41 -56.75,-196.2 -79.17,-167.67 -91.07,-214.32l-331.05 -27.34c-59.09,267.61 -22.3,384.3 -118.65,655.01 -75.65,212.55 -192.16,373.52 -253.5,588.59 262.87,4.11 729.25,75.32 954.27,31.78z"/>
   <path class="fil5" d="M4638.26 8470.81c102.84,-0.88 105.15,51.35 106.81,52.6 -78.47,39.05 -124.46,55 -224.35,2.78 84.64,-75.9 -143.09,-53.15 117.54,-55.37zm-1951.86 -71.7c-41.68,42.41 -27.91,-69.05 -45.39,91.89 118.09,82.86 545.15,124.33 706.87,164.69 250.27,62.47 433.03,127.71 647.47,209.77 84.03,-209.61 231.17,-79.12 249.2,91.49 80.64,59.86 477.92,308.68 584.62,351.03l172.37 -832.45 -1260.32 -47.04 -4.03 112.46c-169.24,39.2 -187.99,44.11 -252.67,-102.53l151.38 1.86c-85.16,-77.68 -339.22,-62.26 -474.52,-75.06 -96.67,-9.15 -181.03,-25.39 -259.17,-33.78 -128.57,-13.79 -187.84,-39.08 -219.7,53.84l53.03 0.18c-9.46,166.77 36.9,59.78 -83.36,137.64l34.21 -123.99z"/>
   <path class="fil5" d="M5824.08 732.62c172.03,124.21 158.04,378.98 -151.15,288.3 -97.33,-178.2 -49.95,-266.47 151.15,-288.3zm-1031.3 713.8c1086.27,74.52 616.69,-169.86 1009,-210.73 199.96,-20.84 436.94,179.83 469.83,12.27 16.43,-83.72 -476.18,-999.49 -1044.06,-611.79 -168.64,115.13 -408.96,520.32 -434.77,810.25z"/>
   <path class="fil1" d="M1630.15 2158.47c-4.66,220.93 -187.59,348.6 -269.3,560.8 274.15,-37.26 184.49,-145.18 269.7,-364.27 72.88,-187.42 150.71,-241.99 210.48,-462.55 81.09,-299.23 225.79,-738.64 256.09,-1025.72 -477.33,-107.07 -627.77,4.7 -741.91,432.59 -51.73,193.91 -91.15,674.3 29.18,805.15 99.85,108.57 -13.34,2.54 155.48,27.81l90.27 26.2z"/>
   <path class="fil1" d="M6435.16 927.15c180.26,499.96 127,222.64 507.24,442.14 297.82,171.91 140.94,16.67 778.74,-39.91 15.62,-80.41 -27.69,-767.34 -406.45,-766.01 -205.71,0.71 -770.99,259.79 -879.53,363.78z"/>
   <path class="fil1" d="M5594.72 6686.48c-583.31,19.08 -1031.93,28.5 -1622.98,14.28 47.84,782.88 1494.21,913.72 1622.98,-14.28z"/>
   <path class="fil1" d="M2623.65 1536.84l1875.67 -78.32c58.64,-78.18 107.04,-209.81 116.54,-330.7 -517.71,-92.93 -1263.17,102.53 -1458.69,113.35 -228.26,12.62 -234,-98.47 -416.83,-123.88l-116.68 419.54z"/>
   <path class="fil5" d="M7574.14 1983.18c168.07,-81.8 235.75,47.85 221.62,204.49 -56.01,46.47 -42.75,46.14 -127.71,72.39 55.75,274.92 69.22,335.29 376.04,347.06 475.87,-726.99 -11.4,-1292.58 -758.98,-936.09 45.05,90.32 48.96,76.06 118.64,150.96l170.41 161.19z"/>
   <path class="fil5" d="M6281.1 7806.41c-9.4,1.2 -95.06,13.45 -95.44,13.42 -93.56,-7.6 31.51,59.72 -105.03,-36.64l174.42 -50.48c52.31,65.3 21.29,2.75 26.05,73.71zm-721.83 -288.23c-19.46,-139.83 -31.3,-247.84 134.95,-240.22 142.12,6.52 144.09,92.63 129.48,217.49 -62.5,47.16 -89.59,68.76 -194.27,63.85 51.49,78.88 35.13,64.37 126.68,133.79 40,30.32 91.82,66.38 146.34,97.42 113.1,64.4 270.8,100.01 378.64,15.9l143.22 0.8c19.08,-137.06 -169.6,-324.76 -245.81,-501.56 -95.5,-221.58 -113.48,-430.72 -122.32,-694.14 -346.34,25.37 -210.5,97.31 -341.8,384.69 -99.29,217.31 -233.94,259.77 -305.34,404.21l150.22 117.77z"/>
   <path class="fil1" d="M5100.09 8108.83c-384.55,-20.09 -773.96,-13.75 -1162.6,-33.92 -276.93,-14.38 -859.24,-116.54 -1073.89,-91.94l-71.15 174.75c415.81,55.83 790.68,86.96 1213.88,119.08 218.29,16.55 431.03,14.63 645.72,29.7 339.51,23.84 385.21,88.84 448.04,-197.67z"/>
   <path class="fil0" d="M4394.11 5113.66c7.61,-292.31 393.85,-283.06 464.09,-35.19 -108.22,198.74 -325.54,171.94 -464.09,35.19zm88.83 -353.63c-544.21,160.81 -250.72,750.08 322.69,588.99 454.8,-127.76 223.85,-750.48 -322.69,-588.99z"/>
   <path class="fil0" d="M2594.56 4151.17c-310.17,166.2 -184.38,804.69 197.15,666.47 314.23,-113.83 178.06,-867.54 -197.15,-666.47z"/>
   <path class="fil0" d="M6345.37 4094.91c-170.27,70.92 -225.54,195.21 -190.69,416.1 26.14,165.71 150.86,339.69 369.89,242.73 253.28,-112.13 194.05,-814.33 -179.19,-658.84z"/>
   <path class="fil1" d="M1106.99 4036.67l154.67 23.2 171.52 -615.81 -319.68 -35.28c-18.84,202.91 -107.36,457.26 -6.51,627.88z"/>
   <path class="fil6" d="M4394.11 5113.66c138.54,136.76 355.87,163.56 464.09,-35.19 -70.24,-247.88 -456.48,-257.12 -464.09,35.19z"/>
   <path class="fil2" d="M1044.83 3143.53c116.09,88.59 287.27,74.9 460.88,78.7l45.63 -298.04c-137.04,5.92 -181.47,29.14 -305.38,66.6 -158.39,47.89 -170.72,13.23 -201.14,152.74z"/>
   <path class="fil2" d="M7664.65 3045.68c308.99,-29.51 327.42,-6.93 402.12,-113.23 -28.51,-111.05 33.46,-74.57 -133.82,-130.02 -79.01,-26.19 -136.15,-38.26 -218.49,-31.1l-49.8 274.35z"/>
   <path class="fil1" d="M5824.08 732.62c-201.1,21.84 -248.47,110.1 -151.15,288.3 309.19,90.68 323.18,-164.1 151.15,-288.3z"/>
   <path class="fil1" d="M5559.27 7518.17l70.16 41.13c104.68,4.91 131.77,-16.69 194.27,-63.85 14.61,-124.87 12.64,-210.97 -129.48,-217.49 -166.25,-7.62 -154.41,100.38 -134.95,240.22z"/>
   <path class="fil1" d="M3731.83 7545.4c72.59,-234.86 -92.8,-346.68 -219.82,-218.05 -138.36,140.09 2.57,278.65 219.82,218.05z"/>
   <path class="fil1" d="M7668.04 2260.06c84.96,-26.25 71.7,-25.92 127.71,-72.39 14.14,-156.65 -53.55,-286.3 -221.62,-204.49l93.9 276.88z"/>
   <path class="fil7" d="M3995.36 8865.47l249.2 91.49c-18.03,-170.61 -165.17,-301.1 -249.2,-91.49z"/>
   <path class="fil1" d="M3741.23 8428.51l-105.32 11.78 -151.38 -1.86c64.68,146.64 83.43,141.73 252.67,102.53l4.03 -112.46z"/>
   <path class="fil1" d="M3941.91 7887.04c67.76,-2.55 124.56,10.77 172.05,8.42 178.83,-8.88 46.58,6.71 107.37,-37.7 -87.65,-145.79 -207.14,-118.51 -279.43,29.28z"/>
   <path class="fil1" d="M5023.38 7937.76c160.93,-23.04 138.67,-2.63 149.64,-183.69 -131.24,26.72 -150.77,29.63 -149.64,183.69z"/>
   <path class="fil1" d="M1118.22 4493.98c52.54,-53.63 28.91,70.59 76.64,-96.64 53.09,-185.95 -29.6,-114.08 -37.68,-123.06 -72.44,97.72 -47.33,83.33 -38.96,219.7z"/>
   <path class="fil7" d="M4520.72 8526.19c99.89,52.23 145.88,36.27 224.35,-2.78 -1.67,-1.25 -3.97,-53.48 -106.81,-52.6 -260.63,2.23 -32.9,-20.53 -117.54,55.37z"/>
   <path class="fil1" d="M6281.1 7806.41c-4.76,-70.96 26.26,-8.41 -26.05,-73.71l-174.42 50.48c136.54,96.36 11.46,29.04 105.03,36.64 0.38,0.03 86.05,-12.22 95.44,-13.42z"/>
   <path class="fil8" d="M1051.96 5367.76l-24.43 -250.65c-135.42,-16.29 -88.92,-39.1 -181.5,37.34l134.56 -22.65 71.37 235.96z"/>
   <path class="fil1" d="M2682.52 8385.29l3.87 13.83 -34.21 123.99c120.26,-77.86 73.91,29.13 83.36,-137.64l-53.03 -0.18z"/>
  </g>
 </g>
</svg>
